<?xml version="1.0" standalone="no"?><!DOCTYPE svg PUBLIC "-//W3C//DTD SVG 1.1//EN" "http://www.w3.org/Graphics/SVG/1.1/DTD/svg11.dtd"><svg t="1595989194054" class="icon" viewBox="0 0 1024 1024" version="1.1" xmlns="http://www.w3.org/2000/svg" p-id="4644" xmlns:xlink="http://www.w3.org/1999/xlink" width="48" height="48"><defs><style type="text/css"></style></defs><path d="M493.206588 50.416941a481.882353 481.882353 0 1 1 0 963.764706 481.882353 481.882353 0 0 1 0-963.764706z m0 210.82353a30.117647 30.117647 0 0 0-30.117647 30.117647v210.823529h-210.823529l-5.421177 0.481882a30.117647 30.117647 0 0 0 5.421177 59.753412h210.823529v210.82353l0.481883 5.421176a30.117647 30.117647 0 0 0 59.753411-5.421176v-210.82353h210.82353l5.421176-0.481882a30.117647 30.117647 0 0 0-5.421176-59.753412h-210.82353v-210.823529l-0.481882-5.421177a30.117647 30.117647 0 0 0-29.635765-24.69647z" p-id="4645"></path></svg>