<?xml version="1.0" standalone="no"?><!DOCTYPE svg PUBLIC "-//W3C//DTD SVG 1.1//EN" "http://www.w3.org/Graphics/SVG/1.1/DTD/svg11.dtd"><svg t="1590658508989" class="icon" viewBox="0 0 1028 1024" version="1.1" xmlns="http://www.w3.org/2000/svg" p-id="2546" xmlns:xlink="http://www.w3.org/1999/xlink" width="48.1875" height="48"><defs><style type="text/css"></style></defs><path d="M887.5008 932.3008a38.4 38.4 0 0 1 0-76.8 64.0512 64.0512 0 0 0 64-64V232.5504a64.0512 64.0512 0 0 0-64-64H140.8a64.0512 64.0512 0 0 0-64 64v558.9504a64.0512 64.0512 0 0 0 64 64h547.0208a38.4 38.4 0 0 1 0 76.8H140.8a140.9536 140.9536 0 0 1-140.8-140.8V232.5504a140.9536 140.9536 0 0 1 140.8-140.8h746.7008a140.9536 140.9536 0 0 1 140.8 140.8v558.9504a140.9536 140.9536 0 0 1-140.8 140.8z" fill="#438CFF" p-id="2547"></path><path d="M835.0208 409.7024H193.28a38.4 38.4 0 1 1 0-76.8h641.7408a38.4 38.4 0 0 1 0 76.8z" fill="#438CFF" p-id="2548"></path><path d="M595.9168 632.6272m-38.4 0a38.4 38.4 0 1 0 76.8 0 38.4 38.4 0 1 0-76.8 0Z" fill="#438CFF" p-id="2549"></path><path d="M445.0304 671.0272H193.28a38.4 38.4 0 1 1 0-76.8H445.0304a38.4 38.4 0 0 1 0 76.8z" fill="#438CFF" p-id="2550"></path></svg>